<?xml version="1.0" encoding="UTF-8"?>
<svg width="171px" height="170px" viewBox="0 0 171 170" version="1.1" xmlns="http://www.w3.org/2000/svg" xmlns:xlink="http://www.w3.org/1999/xlink">
    <title>Slice</title>
    <g id="Main-Page" stroke="none" stroke-width="1" fill="none" fill-rule="evenodd">
        <g id="Gold-Ring-Filled-Copy" transform="translate(6.000000, 5.000000)">
            <path d="M80,0 C124.18278,0 160,35.81722 160,80 C160,124.18278 124.18278,160 80,160 C35.81722,160 0,124.18278 0,80 C0,35.81722 35.81722,0 80,0 Z M80,37.9996306 C49.072054,37.9996306 24,62.6239694 24,92.9996306 C24,123.375292 49.072054,147.999631 80,147.999631 C110.927946,147.999631 136,123.375292 136,92.9996306 C136,62.6239694 110.927946,37.9996306 80,37.9996306 Z M79.4954955,48.9005315 C104.572208,48.9005315 124.900901,68.8662116 124.900901,93.4951261 C124.900901,118.124041 104.572208,138.089721 79.4954955,138.089721 C54.4187825,138.089721 34.0900901,118.124041 34.0900901,93.4951261 C34.0900901,68.8662116 54.4187825,48.9005315 79.4954955,48.9005315 Z M95.5495955,14 L64.3647268,14 L60,22.1282755 L70.8114352,33.6219044 L71.1363483,33.9965793 C73.9732288,33.5411435 76.8816441,33.3046544 79.8443513,33.3046544 C82.8143635,33.3046544 85.7298158,33.5423112 88.5733373,33.9999522 L88.5733373,33.9999522 L88.8826164,33.6219044 L100,22.4906132 L95.5495955,14 Z" id="Combined-Shape" fill="#000000"></path>
            <circle id="Oval-Copy-2" stroke="#000000" stroke-width="3" cx="80" cy="80" r="80"></circle>
        </g>
    </g>
</svg>