<?xml version="1.0" encoding="UTF-8"?>
<svg width="164px" height="166px" viewBox="0 0 164 166" version="1.1" xmlns="http://www.w3.org/2000/svg" xmlns:xlink="http://www.w3.org/1999/xlink">
    <title>Slice</title>
    <g id="Main-Page" stroke="none" stroke-width="1" fill="none" fill-rule="evenodd">
        <g id="Wheat-Filled-Copy-2" transform="translate(3.000000, 4.000000)">
            <path d="M79.0588235,-3.23439053e-11 C122.721806,-3.23439053e-11 158.117647,35.395841 158.117647,79.0588235 C158.117647,122.721806 122.721806,158.117647 79.0588235,158.117647 C35.395841,158.117647 -3.23439053e-11,122.721806 -3.23439053e-11,79.0588235 C-3.23439053e-11,35.395841 35.395841,-3.23439053e-11 79.0588235,-3.23439053e-11 Z M112.600923,118.245868 C114.085275,111.968418 111.297982,101.513287 106.715042,104.311567 C102.132103,107.109846 110.049298,108.495389 107.473793,117.492668 C106.488809,120.933614 104.229687,125.727012 102.132103,129.54008 C101.266504,131.113599 98.0530531,135.368686 96.5128282,137.64575 C94.6666256,140.37517 93.2137258,142.14996 95.3988632,143.704647 C97.5840007,145.259333 98.9873283,142.975456 99.9890121,141.969522 C100.684753,141.270829 102.010576,139.580887 102.794458,138.319413 C103.383228,137.371927 104.516145,135.929262 105.130723,134.848982 C106.612889,132.243689 107.814661,130.092846 109.117154,127.370841 C110.957274,123.525278 112.284443,119.584285 112.600923,118.245868 Z M73.6782776,82.859109 L73.4494024,82.8605326 C76.195745,90.4076372 80.8509516,96.2320328 87.4150222,100.333719 C93.0560904,103.85865 98.4467505,105.073884 103.587003,103.979423 L103.587003,103.979423 L103.992297,103.88824 L104.136266,103.848456 C105.125583,103.535344 105.7201,102.506562 105.476777,101.48065 C105.456089,101.393425 105.42956,101.30769 105.39737,101.224024 C102.788737,94.4439073 97.8156677,89.7385484 90.4781631,87.1079475 C82.4285528,84.2220465 76.7522992,82.8062415 73.4494024,82.8605326 Z M117.775332,66.0828492 C115.401441,68.3799603 112.388849,73.394803 108.737555,81.1273772 C105.409272,88.1758923 105.219972,95.0195742 108.169656,101.658423 C108.206055,101.740346 108.24792,101.819728 108.294969,101.896034 C108.874695,102.836256 110.106856,103.128497 111.047078,102.548771 L111.047078,102.548771 L111.39814,102.326661 C115.806749,99.4658552 118.759221,94.7947824 120.255556,88.3134425 C121.996724,80.7716132 121.169983,73.3614155 117.775332,66.0828492 Z M81.6415021,68.8086471 C73.3001895,66.9252578 67.4937026,66.2117673 64.2220415,66.6681756 C67.8676739,73.8243303 73.1979966,79.0379847 80.2130095,82.309139 C86.241611,85.120322 91.7401898,85.669542 96.7087458,83.956799 L96.7087458,83.956799 L97.0999066,83.8169033 L97.2443668,83.7569258 C98.1838414,83.3235663 98.6456156,82.2327163 98.27991,81.2463461 C98.2487465,81.1622927 98.2119671,81.0804296 98.1698206,81.0013106 C94.7543432,74.5896442 89.2449037,70.525423 81.6415021,68.8086471 Z M103.403247,46.7469454 C101.606937,49.5191908 99.7996512,55.0831892 97.9813905,63.4389404 C96.3239815,71.0555034 97.6790271,77.7663654 102.046527,83.5715265 C102.100421,83.6431613 102.159071,83.7110916 102.222079,83.7748579 C102.99845,84.5605727 104.264771,84.5681472 105.050486,83.791776 L105.050486,83.791776 L105.342586,83.4963864 C108.994661,79.7171819 110.820698,74.5016667 110.820698,67.849841 C110.820698,60.1096306 108.348215,53.0753321 103.403247,46.7469454 Z M91.0377109,30.2391749 C89.2414008,32.9364948 87.4341154,38.3501149 85.6158547,46.480035 C83.956614,53.8989351 85.3164901,60.4346638 89.6954831,66.087221 C89.7382231,66.1423913 89.7838215,66.1952868 89.8320912,66.2456903 C90.5960782,67.0434508 91.8621247,67.0708296 92.6598852,66.3068426 L92.6598852,66.3068426 L92.9532557,66.0192997 C96.6211937,62.3403353 98.4551627,57.2578094 98.4551627,50.771722 C98.4551627,43.2407065 95.9826788,36.3965242 91.0377109,30.2391749 Z M64.6588888,49.936757 C56.1851693,48.7875279 50.338593,48.5828211 47.1191602,49.3226367 C51.3746199,56.1338222 57.139059,60.8630689 64.4124776,63.5103768 C70.6631491,65.7854352 76.1886718,65.8533325 80.9890456,63.7140688 L80.9890456,63.7140688 L81.3665252,63.5406135 L81.5052083,63.4682737 C82.4033382,62.9546827 82.7682813,61.8277375 82.3179995,60.876994 C82.2796288,60.7959765 82.2358545,60.7176305 82.1869727,60.6424858 C78.2256787,54.5528963 72.3829841,50.98432 64.6588888,49.936757 Z M70.0942081,17.6017448 C69.1109661,20.6897053 68.8658878,26.3917662 69.3589731,34.7079276 C69.8089346,42.2967808 72.9176224,48.2044938 78.6850365,52.4310665 C78.7413279,52.4723189 78.7997398,52.5105966 78.8600327,52.5457427 C79.8143167,53.1020159 81.0388654,52.7793644 81.5951387,51.8250804 L81.5951387,51.8250804 L81.7978869,51.4678125 C84.3096752,46.9203443 84.6716653,41.5291964 82.8838573,35.2943691 C80.8080282,28.0550923 76.5448117,22.1575509 70.0942081,17.6017448 Z M56.4109249,29.5103387 C48.5698798,25.8539993 41.0436249,25.3495365 33.8321604,27.9969504 C37.4733805,35.1625674 42.801497,40.380953 49.8165099,43.6521073 C56.1069525,46.5853888 61.8221054,47.0521477 66.9619686,45.0523838 L66.9619686,45.0523838 L67.3370366,44.901675 L67.4848859,44.8332308 C68.2528933,44.4391497 68.6874487,43.5895433 68.5437094,42.7258934 C67.634561,37.2633209 63.5902995,32.858136 56.4109249,29.5103387 Z" id="Combined-Shape" fill="#000000"></path>
            <circle id="Border" stroke="#000000" stroke-width="3" cx="79.0588235" cy="79.0588235" r="77.5588235"></circle>
        </g>
    </g>
</svg>