<?xml version="1.0" encoding="UTF-8"?>
<svg width="137px" height="162px" viewBox="0 0 137 162" version="1.1" xmlns="http://www.w3.org/2000/svg" xmlns:xlink="http://www.w3.org/1999/xlink">
    <title>Slice</title>
    <g id="Main-Page" stroke="none" stroke-width="1" fill="none" fill-rule="evenodd">
        <g id="Gold-Ring-Copy-2" transform="translate(3.000000, 6.000000)" stroke="#000000" stroke-width="3">
            <path d="M84.6690166,-1.5 L46.2406004,-1.5 L40.1547753,9.59227908 L53.6004843,23.5822722 L54.5098442,24.6102022 C58.0224027,24.0119182 61.6332109,23.7003525 65.3171127,23.7003525 C69.0189866,23.7003525 72.6470519,24.0149656 76.1757826,24.6189789 L77.0402886,23.584257 L90.8535465,10.0479859 L84.6690166,-1.5 Z" id="Combined-Shape-Copy-2" fill="#0A0A0A"></path>
            <path d="M65.5,24.5 C83.173112,24.5 99.173112,31.663444 110.754834,43.245166 C122.336556,54.826888 129.5,70.826888 129.5,88.5 C129.5,106.173112 122.336556,122.173112 110.754834,133.754834 C99.173112,145.336556 83.173112,152.5 65.5,152.5 C47.826888,152.5 31.826888,145.336556 20.245166,133.754834 C8.663444,122.173112 1.5,106.173112 1.5,88.5 C1.5,70.826888 8.663444,54.826888 20.245166,43.245166 C31.826888,31.663444 47.826888,24.5 65.5,24.5 Z M64.9099099,34.481982 C49.8302972,34.481982 36.1782702,40.5942027 26.2961464,50.4763265 C16.4140225,60.3584504 10.3018018,74.0104774 10.3018018,89.0900901 C10.3018018,104.169703 16.4140225,117.82173 26.2961464,127.703854 C36.1782702,137.585978 49.8302972,143.698198 64.9099099,143.698198 C79.9895226,143.698198 93.6415496,137.585978 103.523673,127.703854 C113.405797,117.82173 119.518018,104.169703 119.518018,89.0900901 C119.518018,74.0104774 113.405797,60.3584504 103.523673,50.4763265 C93.6415496,40.5942027 79.9895226,34.481982 64.9099099,34.481982 Z" id="Combined-Shape-Copy" fill="#000000"></path>
        </g>
    </g>
</svg>