<?xml version="1.0" encoding="UTF-8"?>
<svg width="166px" height="164px" viewBox="0 0 166 164" version="1.1" xmlns="http://www.w3.org/2000/svg" xmlns:xlink="http://www.w3.org/1999/xlink">
    <title>Slice</title>
    <g id="Main-Page" stroke="none" stroke-width="1" fill="none" fill-rule="evenodd">
        <g id="Best-Wheat-Copy-2" transform="translate(5.000000, 0.000000)" stroke="#000000" stroke-width="6">
            <g id="Wheat-Try-4-Copy" transform="translate(84.090171, 78.044652) rotate(-21.000000) translate(-84.090171, -78.044652) translate(46.090171, 10.044652)">
                <path d="M19.4031302,5.26507364 C16.3661186,10.1317867 14.8393809,15.4302179 14.8382066,21.1645429 C14.8370769,26.6846697 16.2451047,31.0852225 19.4341411,34.4845418 C22.7554217,31.7866343 24.1847666,27.2446819 24.1860127,21.160172 C24.1872903,14.9173846 22.6154041,9.60904633 19.4031302,5.26507364 Z" id="Oil-Copy-25" fill="#000000" transform="translate(19.512110, 19.334569) rotate(-44.000000) translate(-19.512110, -19.334569) "></path>
                <path d="M24.804179,30.3407829 C22.2706355,34.8573024 20.9976687,39.7349596 20.996605,44.9767387 C20.9955638,50.1106236 22.2085347,54.2754858 24.958108,57.601834 C28.1376169,52.8340602 29.0241026,47.3846519 27.6951644,41.2724838 C26.7119229,36.7502736 25.7591003,33.1007982 24.804179,30.3407829 Z" id="Oil-Copy-24" fill="#000000" transform="translate(24.647392, 43.146852) rotate(-49.000000) translate(-24.647392, -43.146852) "></path>
                <path d="M42.2549034,15.1841913 C39.722603,19.5664525 38.4486662,24.3007065 38.4484852,29.3907032 C38.4483082,34.3674689 39.6626401,38.402904 42.4141731,41.6282189 C45.582961,37.0154231 46.4700586,31.7406736 45.1471663,25.8223935 C44.1628533,21.4188306 43.2100112,17.8668345 42.2549034,15.1841913 Z" id="Oil-Copy-23" fill="#000000" transform="translate(42.097880, 27.611530) scale(-1, 1) rotate(-5.000000) translate(-42.097880, -27.611530) "></path>
                <path d="M51.9968193,33.1972066 C49.4635878,37.5802953 48.1890714,42.3144684 48.1883737,47.4042543 C48.1876919,52.380547 49.4015797,56.415498 52.1528044,59.6402439 C55.322596,55.0270401 56.2104541,49.7523702 54.8880617,43.83436 C53.9041691,39.4312141 52.9516724,35.8795651 51.9968193,33.1972066 Z" id="Oil-Copy-32" fill="#000000" transform="translate(51.838016, 45.624124) scale(-1, 1) rotate(-21.000000) translate(-51.838016, -45.624124) "></path>
                <path d="M33.2160601,53.4615055 C30.6825426,57.9773879 29.4096075,62.855262 29.408534,68.0972685 C29.4074832,73.2313291 30.620378,77.3963428 33.3697892,80.7228425 C36.5490811,75.9548372 37.4355271,70.5051978 36.1066406,64.3927814 C35.1235397,59.8708584 34.170848,56.2215271 33.2160601,53.4615055 Z" id="Oil-Copy-22" fill="#000000" transform="translate(33.059083, 66.267298) rotate(-44.000000) translate(-33.059083, -66.267298) "></path>
                <path d="M57.3450219,52.8154043 C54.8129709,57.3321552 53.5407666,62.2103941 53.540048,67.4528342 C53.5393444,72.5874467 54.7521762,76.7530735 57.5009972,80.0802931 C60.6793658,75.3125749 61.5651354,69.8621629 60.2360303,63.7487789 C59.2527356,59.2259928 58.2998954,55.575966 57.3450219,52.8154043 Z" id="Oil-Copy-21" fill="#000000" transform="translate(57.189687, 65.623295) scale(-1, 1) rotate(-21.000000) translate(-57.189687, -65.623295) "></path>
                <path d="M34.1725137,73.027412 C31.6394927,77.5434887 30.3666563,82.4216416 30.3656237,87.6639533 C30.3646131,92.7982868 31.5774604,96.9635432 34.3267395,100.290262 C37.505619,95.5220278 38.3919398,90.0720907 37.0630653,83.959335 C36.0799692,79.437143 35.1272858,75.7875972 34.1725137,73.027412 Z" id="Oil-Copy-20" fill="#000000" transform="translate(34.015851, 85.833973) rotate(-37.000000) translate(-34.015851, -85.833973) "></path>
                <path d="M59.8586521,73.7932641 C57.3256475,78.3101675 56.053077,83.1880627 56.0520811,88.4300728 C56.0511063,93.5641799 57.2637912,97.7293296 60.0126272,101.056054 C63.1918831,96.2884114 64.078126,90.8383613 62.7492351,84.7254696 C61.7661235,80.203161 60.8134288,76.5535215 59.8586521,73.7932641 Z" id="Oil-Copy-19" fill="#000000" transform="translate(59.702179, 86.600127) scale(-1, 1) rotate(-34.000000) translate(-59.702179, -86.600127) "></path>
                <path d="M42.2668475,101.864013 C44.1618879,105.682426 44.2815511,109.89497 42.6258373,114.501644 C40.9701235,119.108318 36.7014999,125.824043 29.8199666,134.648817" id="Line-2" stroke-linecap="round" transform="translate(36.801946, 118.256415) rotate(16.000000) translate(-36.801946, -118.256415) "></path>
            </g>
            <circle id="Oval-Copy" cx="78" cy="82" r="75"></circle>
        </g>
    </g>
</svg>