<?xml version="1.0" encoding="UTF-8"?>
<svg width="99px" height="94px" viewBox="0 0 99 94" version="1.1" xmlns="http://www.w3.org/2000/svg" xmlns:xlink="http://www.w3.org/1999/xlink">
    <title>Slice</title>
    <g id="Main-Page" stroke="none" stroke-width="1" fill="none" fill-rule="evenodd">
        <g id="Silver-Filled-Copy-2" transform="translate(25.000000, 7.000000)">
            <g id="Best-Coin-So-Far-Copy" transform="translate(3.025316, 2.025316)" stroke="#000000" stroke-width="3">
                <ellipse id="Oval-21-Copy-131" fill="#000000" cx="26.428575" cy="37.9746835" rx="17.232374" ry="35.4620253"></ellipse>
                <path d="M3.72419263,46.5822527 L0.111529153,46.5822527 C0.072089077,46.2464415 0.0349065328,45.9089234 1.47749155e-05,45.5697639 L3.61267825,45.5697639 C3.64757001,45.9089234 3.68475256,46.2464415 3.72419263,46.5822527 Z" id="Oval-21-Copy-130"></path>
                <path d="M13.0984705,4.07654866 L11.1398676,4.07644937 C12.765771,2.45780193 14.5222087,1.27515574 16.3697224,0.606368714 L16.5241664,0.606709152 C15.3190007,1.54244676 14.1724734,2.70819307 13.0984705,4.07654866 Z" id="Top-Egde-Copy" fill="#000000"></path>
                <path d="M8.85604787,11.1393823 L6.07587758,11.1393823 C6.25019664,10.7949932 6.42785003,10.4571765 6.60873403,10.126137 L9.38890433,10.126137 C9.20802032,10.4571765 9.03036694,10.7949932 8.85604787,11.1393823 Z" id="Oval-21-Copy-129"></path>
                <path d="M6.0313914,18.226838 L3.03828796,18.226838 C3.14369876,17.8858698 3.25175715,17.5484372 3.36240675,17.2146515 L6.35551019,17.2146515 C6.24486059,17.5484372 6.1368022,17.8858698 6.0313914,18.226838 Z" id="Oval-21-Copy-128"></path>
                <path d="M4.32295006,25.3155768 L1.01281531,25.3155785 C1.07367405,24.9758558 1.13691319,24.6383519 1.20249318,24.3031448 L4.51262793,24.3031431 C4.44704794,24.6383502 4.3838088,24.9758541 4.32295006,25.3155768 Z" id="Oval-21-Copy-127"></path>
                <path d="M3.43321927,32.4049785 L6.30910319e-06,32.4049785 C0.0252664234,32.0658595 0.0527982694,31.7281981 0.0825703682,31.3920565 L3.51578333,31.3920565 C3.48601123,31.7281981 3.45847938,32.0658595 3.43321927,32.4049785 Z" id="Oval-21-Copy-126"></path>
                <path d="M3.229,38.4810127 L3.22768195,37.9746835 C3.22768195,38.4833506 3.23275053,38.9896818 3.24279346,39.4934912 L0.0134357993,39.4934912 C0.0033928668,38.9896818 -0.00167570901,38.4833506 -0.00167570901,37.9746835 L0,38.4810127 L3.229,38.4810127 Z" id="Oval-21-Copy-125"></path>
                <path d="M4.94355572,53.671344 L1.23702503,53.671344 C1.15990093,53.3365398 1.085168,52.9991369 1.01286927,52.6592201 L4.71939996,52.6592201 C4.79169869,52.9991369 4.86643162,53.3365398 4.94355572,53.671344 Z" id="Oval-21-Copy-124"></path>
                <path d="M7.07557257,60.7599722 L3.41062709,60.7599722 C3.28374062,60.4266613 3.15956911,60.0890966 3.03817734,59.7474059 L6.70312282,59.7474059 C6.82451459,60.0890966 6.9486861,60.4266613 7.07557257,60.7599722 Z" id="Oval-21-Copy-123"></path>
                <path d="M10.5905713,67.8487738 L6.70195086,67.8487738 C6.48964244,67.5195298 6.2809304,67.1816643 6.07595025,66.8354445 L9.96457068,66.8354445 C10.1695508,67.1816643 10.3782629,67.5195298 10.5905713,67.8487738 Z" id="Oval-21-Copy-121"></path>
                <path d="M17.1170451,75.8460182 L17.1201707,75.8480506 L16.9647517,75.8497752 C15.3290763,75.6169849 13.7500366,74.9808484 12.2530514,73.9915216 L12.2531707,73.9240506 L14.8292323,73.9254795 C15.5659454,74.6588179 16.3298053,75.301475 17.1170451,75.8460182 Z" id="Edge-Copy"></path>
            </g>
            <g id="Side1-Copy" transform="translate(1.000000, 0.000000)">
                <path d="M19.8247123,2.0703125 C19.8247123,2.0703125 17.6001263,1.62250575 13.4958463,4.29835831 C10.6696196,6.14096309 8.32609711,9.41412657 6.02650293,14.1238132 C0.387410764,25.6729627 0.788172464,41.0522141 0.788172464,41.0522141 C0.788172464,41.0522141 0.788172464,58.5700148 8.68077542,70.682851 C14.6259396,78.8788063 19.8247123,77.9761677 19.8247123,77.9761677" id="Path-81" stroke="#000000" stroke-width="3"></path>
                <path d="M19.5480617,0.542672073 C19.5480617,0.542672073 21.8251525,1.96140573 22.334108,2.21865111 C22.8329485,2.47078403 24.2659711,2.99174248 24.2659711,2.99174248 C24.2659711,2.99174248 22.9022449,3.53985364 20.1184237,3.53985364 C17.3346025,3.53985364 15.9708762,2.69506527 15.9708762,2.69506527 L19.5480617,0.542672073 Z" id="Triangle-1" fill="#000000" transform="translate(20.118424, 2.041263) scale(1, -1) translate(-20.118424, -2.041263) "></path>
                <path d="M19.2887164,76.1669304 C19.2887164,76.1669304 21.096964,77.4310225 21.7519021,77.7923507 C22.4117385,78.362589 24.5072686,79.3092365 24.5072686,79.3092365 C24.5072686,79.3092365 20.8975722,79.5871242 19.6012164,79.5871242 C18.3048606,79.5871242 17.0263054,79.0073675 17.0263054,79.0073675 L19.2887164,76.1669304 Z" id="Triangle-1-Copy" fill="#000000"></path>
            </g>
            <g id="Side2-Copy" transform="translate(22.265823, 1.012658)">
                <path d="M22.7896118,2.74426424 C22.7896118,2.74426424 22.0751142,2.18131898 18.9649482,5.50138437 C15.8547822,8.82144976 15.912634,9.80122627 13.5224044,13.9967366 C8.86333615,23.9776998 8.86333615,39.9423952 8.86333615,39.9423952 C8.86333615,39.9423952 8.61734141,57.2982595 16.5099444,69.4110957 C18.0730535,71.5999481 19.4779667,73.2503862 20.8223947,74.1581801 C23.2036855,75.7660917 25.9848264,75.6054705 25.9848264,75.6054705" id="Path-81" stroke="#000000" stroke-width="3" transform="translate(17.423658, 39.159043) scale(-1, 1) translate(-17.423658, -39.159043) "></path>
                <path d="M1.37633505,1.6072488 C1.37633505,1.6072488 3.03550237,0.596810737 5.07639438,0.651453714 C7.11728639,0.70609669 7.62361551,0.909315671 9.0130538,1.35334255 C10.8361593,1.93595775 14.0906843,4.37302206 14.0906843,4.37302206 C14.0906843,4.37302206 8.80266021,2.12025316 6.32614715,2.66391416 C3.8496341,3.20757516 0.696202532,5.62475277 0.696202532,5.62475277 L1.37633505,1.6072488 Z" id="Triangle-1" fill="#000000" transform="translate(7.393443, 3.137034) scale(-1, 1) translate(-7.393443, -3.137034) "></path>
                <path d="M1.94163667,74.8665066 C4.47278789,74.0904485 6.83300874,73.2376891 9.70493769,74.2946613 C12.5768666,75.3516335 14.4715515,77.1617993 14.4715515,77.1617993 C14.4715515,77.1617993 7.45986049,75.7496584 7.02384098,75.80549 C4.85945708,76.0826359 3.20844837,77.1617993 3.20844837,77.1617993 C3.20844837,77.1617993 -0.589514558,75.6425647 1.94163667,74.8665066 Z" id="Triangle-1-Copy" fill="#000000" transform="translate(7.771649, 75.481241) scale(-1, -1) translate(-7.771649, -75.481241) "></path>
            </g>
            <rect id="Rectangle" stroke="#000000" x="6.5" y="39.5" width="1" height="1"></rect>
            <path d="" id="Rectangle-Copy" stroke="#000000"></path>
        </g>
    </g>
</svg>