<?xml version="1.0" encoding="UTF-8"?>
<svg width="131px" height="167px" viewBox="0 0 131 167" version="1.1" xmlns="http://www.w3.org/2000/svg" xmlns:xlink="http://www.w3.org/1999/xlink">
    <title>Slice</title>
    <g id="Main-Page" stroke="none" stroke-width="1" fill="none" fill-rule="evenodd">
        <g id="Best-Wheat-Copy-3" transform="translate(3.000000, 3.000000)" stroke="#000000">
            <g id="Wheat-Try-4-Copy" transform="translate(62.814113, 80.673132) rotate(-21.000000) translate(-62.814113, -80.673132) translate(23.314113, 10.173132)">
                <path d="M19.8530682,2.73996624 C15.7493286,8.50260331 13.6921393,14.8493063 13.6921393,21.7830672 C13.6921393,28.3367447 15.5283972,33.4416708 20.1910693,37.3490023 C24.4865561,34.4127296 26.4933699,29.1627008 26.4933699,21.7830672 C26.4933699,14.1232983 24.2958154,7.76853016 19.8530682,2.73996624 Z" id="Oil-Copy-25" stroke-width="3" fill="#000000" transform="translate(20.092755, 19.901231) rotate(-44.000000) translate(-20.092755, -19.901231) "></path>
                <path d="M25.8508755,27.7231352 C21.9759909,33.3598152 20.0338351,39.5490399 20.0338351,46.2936374 C20.0338351,52.5843144 21.7205494,57.5399044 25.7683912,61.5117388 C25.9430114,61.4988806 26.1093911,61.4007729 26.2620476,61.2562992 C30.3877378,55.7417452 31.6414796,49.3676781 30.0699667,42.1458475 C28.6453186,35.5989283 27.2525372,30.7843701 25.8508755,27.7231352 Z" id="Oil-Copy-24" stroke-width="3" fill="#000000" transform="translate(25.381035, 44.411801) rotate(-49.000000) translate(-25.381035, -44.411801) "></path>
                <path d="M43.8219429,12.2046583 C39.9468359,17.6813333 38.0028565,23.6961297 38.0028565,30.2522266 C38.0028565,36.3673743 39.6930496,41.1822241 43.7571159,45.0412768 C43.9223707,45.0289837 44.0789136,44.9380029 44.2180333,44.8028522 C48.3508147,39.4464538 49.6107487,33.2530269 48.0408509,26.2336022 C46.6159467,19.8624821 45.2236694,15.1787704 43.8219429,12.2046583 Z" id="Oil-Copy-23" stroke-width="3" fill="#000000" transform="translate(43.350056, 28.421250) scale(-1, 1) rotate(-5.000000) translate(-43.350056, -28.421250) "></path>
                <path d="M53.8515406,30.7454093 C49.9764336,36.2220842 48.0324542,42.2368806 48.0324542,48.7929775 C48.0324542,54.9081252 49.7226473,59.7229751 53.7867136,63.5820278 C53.9519683,63.5697346 54.1085113,63.4787539 54.2476309,63.3436032 C58.3804124,57.9872048 59.6403464,51.7937779 58.0704485,44.7743531 C56.6455444,38.403233 55.253267,33.7195213 53.8515406,30.7454093 Z" id="Oil-Copy-32" stroke-width="3" fill="#000000" transform="translate(53.379654, 46.962001) scale(-1, 1) rotate(-21.000000) translate(-53.379654, -46.962001) "></path>
                <path d="M34.5128172,51.5216243 C30.6379326,57.1583044 28.6957768,63.347529 28.6957768,70.0921265 C28.6957768,76.3828035 30.3824911,81.3383936 34.4303329,85.3102279 C34.604953,85.2973698 34.7713327,85.1992621 34.9239892,85.0547884 C39.0496795,79.5402344 40.3034213,73.1661672 38.7319084,65.9443366 C37.3072602,59.3974174 35.9144788,54.5828592 34.5128172,51.5216243 Z" id="Oil-Copy-22" stroke-width="3" fill="#000000" transform="translate(34.042977, 68.210290) rotate(-44.000000) translate(-34.042977, -68.210290) "></path>
                <path d="M59.3603509,50.8589767 C55.4854663,56.4956568 53.5433105,62.6848815 53.5433105,69.429479 C53.5433105,75.720156 55.2300248,80.675746 59.2778666,84.6475803 C59.4524868,84.6347222 59.6188665,84.5366145 59.771523,84.3921408 C63.8972132,78.8775868 65.150955,72.5035196 63.5794421,65.281689 C62.1547939,58.7347699 60.7620126,53.9202117 59.3603509,50.8589767 Z" id="Oil-Copy-21" stroke-width="3" fill="#000000" transform="translate(58.890510, 67.547642) scale(-1, 1) rotate(-21.000000) translate(-58.890510, -67.547642) "></path>
                <path d="M35.4980576,71.6621612 C31.623173,77.2988412 29.6810172,83.4880659 29.6810172,90.2326634 C29.6810172,96.5233404 31.3677315,101.47893 35.4155733,105.450765 C35.5901934,105.437907 35.7565731,105.339799 35.9092296,105.195325 C40.0349199,99.6807712 41.2886617,93.3067041 39.7171488,86.0848735 C38.2925006,79.5379543 36.8997192,74.7233961 35.4980576,71.6621612 Z" id="Oil-Copy-20" stroke-width="3" fill="#000000" transform="translate(35.028217, 88.350827) rotate(-37.000000) translate(-35.028217, -88.350827) "></path>
                <path d="M61.9474629,72.4508165 C58.0725783,78.0874966 56.1304225,84.2767212 56.1304225,91.0213187 C56.1304225,97.3119957 57.8171367,102.267586 61.8649786,106.23942 C62.0395987,106.226562 62.2059784,106.128454 62.3586349,105.983981 C66.4843252,100.469427 67.7380669,94.0953594 66.1665541,86.8735288 C64.7419059,80.3266096 63.3491245,75.5120514 61.9474629,72.4508165 Z" id="Oil-Copy-19" stroke-width="3" fill="#000000" transform="translate(61.477622, 89.139482) scale(-1, 1) rotate(-34.000000) translate(-61.477622, -89.139482) "></path>
                <path d="M43.3471542,105.396992 C45.2980783,109.32729 45.4208265,113.663488 43.7153989,118.405585 C42.0099712,123.147682 37.6137565,130.061037 30.5267546,139.145649" id="Line-2" stroke-width="6" stroke-linecap="round" transform="translate(37.717672, 122.271320) rotate(16.000000) translate(-37.717672, -122.271320) "></path>
            </g>
        </g>
    </g>
</svg>