<?xml version="1.0" encoding="UTF-8"?>
<svg width="166px" height="164px" viewBox="0 0 166 164" version="1.1" xmlns="http://www.w3.org/2000/svg" xmlns:xlink="http://www.w3.org/1999/xlink">
    <title>Slice</title>
    <g id="Main-Page" stroke="none" stroke-width="1" fill="none" fill-rule="evenodd">
        <g id="Best-Wheat-Copy-2" transform="translate(5.000000, 0.000000)" stroke="#000000" stroke-width="3">
            <g id="Wheat-Try-4-Copy" transform="translate(84.090171, 78.044652) rotate(-21.000000) translate(-84.090171, -78.044652) translate(46.090171, 10.044652)">
                <path d="M19.2870249,2.73460098 C15.3260309,8.31380349 13.3395804,14.4559455 13.3382066,21.1642357 C13.3369113,27.4932169 15.101332,32.4285731 19.6188037,36.2194749 C23.7553084,33.3681302 25.684553,28.2878923 25.6860126,21.1604792 C25.6875286,13.7530014 23.5703179,7.60401715 19.2870249,2.73460098 Z" id="Oil-Copy-25" fill="#000000" transform="translate(19.512110, 19.334569) rotate(-44.000000) translate(-19.512110, -19.334569) "></path>
                <path d="M25.1004678,27.0245077 C21.3690321,32.475883 19.4979276,38.4589934 19.496605,44.9764343 C19.4953751,51.0412663 21.1107687,55.8260255 25.0088681,59.6812005 C25.1853979,59.6683402 25.3539285,59.5689571 25.5096081,59.4226675 C29.4759903,54.0892892 30.677516,47.9290584 29.1609187,40.9537922 C27.7898498,34.6478526 26.4496622,29.9979191 25.1004678,27.0245077 Z" id="Oil-Copy-24" fill="#000000" transform="translate(24.647392, 43.146852) rotate(-49.000000) translate(-24.647392, -43.146852) "></path>
                <path d="M42.5490681,11.9417545 C38.8198005,17.2397377 36.9487106,23.0546324 36.9484852,29.3906499 C36.9482756,35.2834438 38.5654226,39.9310838 42.481316,43.684802 C42.648757,43.6724687 42.8076093,43.579931 42.9500166,43.4427895 C46.9208757,38.2622844 48.1267393,32.2760208 46.6110414,25.4951786 C45.2388801,19.3564821 43.8986078,14.8314415 42.5490681,11.9417545 Z" id="Oil-Copy-23" fill="#000000" transform="translate(42.097880, 27.611530) scale(-1, 1) rotate(-5.000000) translate(-42.097880, -27.611530) "></path>
                <path d="M52.2915291,29.9557138 C48.5612951,35.2527195 46.6892423,41.0678891 46.6883737,47.4040487 C46.6875664,53.2964381 48.3042713,57.9436054 52.2199708,61.6967191 C52.3873979,61.6843899 52.5462335,61.5918594 52.6885984,61.454724 C56.6603965,56.2739775 57.8670832,50.2877738 56.35196,43.5072487 C54.9804741,37.369534 53.6407192,32.8451217 52.2915291,29.9557138 Z" id="Oil-Copy-32" fill="#000000" transform="translate(51.838016, 45.624124) scale(-1, 1) rotate(-21.000000) translate(-51.838016, -45.624124) "></path>
                <path d="M33.512421,50.1449966 C29.780921,55.5959127 27.9098688,61.579264 27.908534,68.0969614 C27.9072927,74.1619604 29.5225801,78.946865 33.4204275,82.8021963 C33.5969736,82.7893356 33.765525,82.6899482 33.9212383,82.543649 C37.887459,77.2100693 39.0889284,71.0496176 37.5724002,64.074114 C36.2014942,57.7684222 34.8614598,53.1185468 33.512421,50.1449966 Z" id="Oil-Copy-22" fill="#000000" transform="translate(33.059083, 66.267298) rotate(-44.000000) translate(-33.059083, -66.267298) "></path>
                <path d="M57.6413842,49.4985032 C53.9113102,54.9497703 52.0409416,60.9339283 52.040048,67.4526286 C52.0392168,73.5184658 53.6545219,78.3041796 57.551798,82.1603574 C57.7283982,82.1474919 57.8970176,82.0480777 58.0528526,81.9017375 C62.0178417,76.5677595 63.2185374,70.4065802 61.7017894,63.4301096 C60.3306352,57.1233154 58.9904516,52.4726153 57.6413842,49.4985032 Z" id="Oil-Copy-21" fill="#000000" transform="translate(57.189687, 65.623295) scale(-1, 1) rotate(-21.000000) translate(-57.189687, -65.623295) "></path>
                <path d="M34.4689223,69.7107992 C30.7378224,75.1619509 28.8669076,81.1456114 28.8656238,87.6636578 C28.8644298,93.7289216 30.4796382,98.5140647 34.3772226,102.369612 C34.5537869,102.35675 34.722361,102.257352 34.8781143,102.111038 C38.8440139,96.7772563 40.0453314,90.6165213 38.5288291,83.6406872 C37.1579359,77.3346479 35.817924,72.6845171 34.4689223,69.7107992 Z" id="Oil-Copy-20" fill="#000000" transform="translate(34.015851, 85.833973) rotate(-37.000000) translate(-34.015851, -85.833973) "></path>
                <path d="M60.1550686,70.4766013 C56.4241542,75.927821 54.5533194,81.9115999 54.5520811,88.4297878 C54.5509296,94.4951592 56.1661235,99.2804056 60.063605,103.136075 C60.2401811,103.123212 60.4087691,103.023809 60.5645436,102.877486 C64.5302891,97.543635 65.731516,91.3827933 64.2149996,84.4068249 C62.8440875,78.1006359 61.5040666,73.4503939 60.1550686,70.4766013 Z" id="Oil-Copy-19" fill="#000000" transform="translate(59.702179, 86.600127) scale(-1, 1) rotate(-34.000000) translate(-59.702179, -86.600127) "></path>
                <path d="M41.534772,101.140352 C43.4298123,104.958765 43.5494756,109.171309 41.8937618,113.777983 C40.238048,118.384658 35.9694244,125.100382 29.0878911,133.925157" id="Line-2" stroke-linecap="round" transform="translate(36.069870, 117.532754) rotate(16.000000) translate(-36.069870, -117.532754) "></path>
            </g>
            <circle id="Oval-Copy" cx="78" cy="82" r="76.5"></circle>
        </g>
    </g>
</svg>