<?xml version="1.0" encoding="UTF-8"?>
<svg width="95px" height="95px" viewBox="0 0 95 95" version="1.1" xmlns="http://www.w3.org/2000/svg" xmlns:xlink="http://www.w3.org/1999/xlink">
    <title>Slice</title>
    <g id="Main-Page" stroke="none" stroke-width="1" fill="none" fill-rule="evenodd">
        <g id="Silver-Copy" transform="translate(24.000000, 7.000000)" stroke="#000000" stroke-width="3">
            <path d="M26.3341974,2.05128205 C36.9632431,2.05128205 45.5797871,19.2710994 45.5797871,40.5128205 C45.5797871,61.7545417 36.9632431,78.974359 26.3341974,78.974359 C25.1234716,78.974359 23.9388578,78.7509341 22.7901163,78.3235899 C21.641618,78.7508042 20.4566675,78.974359 19.2455898,78.974359 C8.61654404,78.974359 0,61.7545417 0,40.5128205 C0,19.2710994 8.61654404,2.05128205 19.2455898,2.05128205 C20.4566675,2.05128205 21.641618,2.27483685 22.7906726,2.70242381 C23.9388578,2.27470693 25.1234716,2.05128205 26.3341974,2.05128205 Z" id="Oval-21-Copy"></path>
            <ellipse id="Oval-21-Copy-6" cx="27.3468556" cy="40.5128205" rx="19.2455898" ry="38.4615385"></ellipse>
            <line x1="18.2278481" y1="2.05128205" x2="26.3594413" y2="2.05128205" id="Path-15"></line>
            <line x1="9.11392405" y1="9.23076923" x2="17.2455172" y2="9.23076923" id="Path-15-Copy-2"></line>
            <line x1="5.06329114" y1="16.4102564" x2="13.1948843" y2="16.4102564" id="Path-15-Copy-3"></line>
            <line x1="1.01265823" y1="23.5897436" x2="9.14425138" y2="23.5897436" id="Path-15-Copy-4"></line>
            <line x1="1.01265823" y1="30.7692308" x2="9.14425138" y2="30.7692308" id="Path-15-Copy-5"></line>
            <line x1="2.87814779e-14" y1="37.9487179" x2="8.13159315" y2="37.9487179" id="Path-15-Copy-6"></line>
            <line x1="2.87814779e-14" y1="45.1282051" x2="8.13159315" y2="45.1282051" id="Path-15-Copy-7"></line>
            <line x1="1.01265823" y1="52.3076923" x2="9.14425138" y2="52.3076923" id="Path-15-Copy-8"></line>
            <line x1="2.02531646" y1="59.4871795" x2="10.1569096" y2="59.4871795" id="Path-15-Copy-9"></line>
            <line x1="5.06329114" y1="66.6666667" x2="13.1948843" y2="66.6666667" id="Path-15-Copy-10"></line>
            <line x1="9.11392405" y1="73.8461538" x2="17.2455172" y2="73.8461538" id="Path-15-Copy-11"></line>
            <line x1="18.2278481" y1="78.974359" x2="26.3594413" y2="78.974359" id="Path-15-Copy"></line>
        </g>
    </g>
</svg>