<?xml version="1.0" encoding="UTF-8"?>
<svg width="106px" height="169px" viewBox="0 0 106 169" version="1.1" xmlns="http://www.w3.org/2000/svg" xmlns:xlink="http://www.w3.org/1999/xlink">
    <title>Slice</title>
    <g id="Main-Page" stroke="none" stroke-width="1" fill="none" fill-rule="evenodd">
        <g id="Silver-Copy" transform="translate(5.000000, 5.000000)" stroke="#000000" stroke-width="6">
            <path d="M54.1121963,0.975609756 C75.9530369,0.975609756 93.6585366,36.3560344 93.6585366,80 C93.6585366,123.643966 75.9530369,159.02439 54.1121963,159.02439 C51.6238879,159.02439 49.1892557,158.565158 46.8283669,157.686792 C44.4685926,158.565287 42.0342969,159.02439 39.5463403,159.02439 C17.7054996,159.02439 0,123.643966 0,80 C0,36.3560344 17.7054996,0.975609756 39.5463403,0.975609756 C42.0346487,0.975609756 44.4692809,1.43484238 46.8301697,2.31320762 C49.1899439,1.43471257 51.6242396,0.975609756 54.1121963,0.975609756 Z" id="Oval-21-Copy"></path>
            <ellipse id="Oval-21-Copy-6" cx="56.097561" cy="80" rx="39.5121951" ry="79.0243902"></ellipse>
            <line x1="38.0487805" y1="0.975609756" x2="54.5874273" y2="0.975609756" id="Path-15"></line>
            <line x1="16.5853659" y1="15.2845528" x2="33.1240126" y2="15.2845528" id="Path-15-Copy-2"></line>
            <line x1="9.75609756" y1="30.2439024" x2="26.2947443" y2="30.2439024" id="Path-15-Copy-3"></line>
            <line x1="3.90243902" y1="44.5528455" x2="20.4410858" y2="44.5528455" id="Path-15-Copy-4"></line>
            <line x1="1.95121951" y1="59.5121951" x2="18.4898663" y2="59.5121951" id="Path-15-Copy-5"></line>
            <line x1="5.85379381e-14" y1="74.796748" x2="16.5386468" y2="74.796748" id="Path-15-Copy-6"></line>
            <line x1="5.85379381e-14" y1="89.4308943" x2="16.5386468" y2="89.4308943" id="Path-15-Copy-7"></line>
            <line x1="1.95121951" y1="104.065041" x2="18.4898663" y2="104.065041" id="Path-15-Copy-8"></line>
            <line x1="3.90243902" y1="118.699187" x2="20.4410858" y2="118.699187" id="Path-15-Copy-9"></line>
            <line x1="10.7317073" y1="133.333333" x2="27.2703541" y2="133.333333" id="Path-15-Copy-10"></line>
            <line x1="18.5365854" y1="147.96748" x2="35.0752321" y2="147.96748" id="Path-15-Copy-11"></line>
            <line x1="38.0254209" y1="158.995122" x2="54.5640677" y2="158.995122" id="Path-15-Copy"></line>
        </g>
    </g>
</svg>